<svg width="34" height="34" viewBox="0 0 34 34" fill="none" xmlns="http://www.w3.org/2000/svg">
<path d="M14.1665 26.9169C14.1665 28.4752 15.4415 29.7502 16.9998 29.7502C18.5582 29.7502 19.8332 28.4752 19.8332 26.9169C19.8332 25.3586 18.5582 24.0836 16.9998 24.0836C15.4415 24.0836 14.1665 25.3586 14.1665 26.9169Z" stroke="#A3B2C7" stroke-width="1.50667"/>
<path d="M14.1665 7.08341C14.1665 8.64175 15.4415 9.91675 16.9998 9.91675C18.5582 9.91675 19.8332 8.64175 19.8332 7.08341C19.8332 5.52508 18.5582 4.25008 16.9998 4.25008C15.4415 4.25008 14.1665 5.52508 14.1665 7.08341Z" stroke="#A3B2C7" stroke-width="1.50667"/>
<path d="M14.1665 17.0004C14.1665 18.5587 15.4415 19.8337 16.9998 19.8337C18.5582 19.8337 19.8332 18.5587 19.8332 17.0004C19.8332 15.4421 18.5582 14.1671 16.9998 14.1671C15.4415 14.1671 14.1665 15.4421 14.1665 17.0004Z" stroke="#A3B2C7" stroke-width="1.50667"/>
</svg>
