<svg width="22" height="22" viewBox="0 0 22 22" fill="none" xmlns="http://www.w3.org/2000/svg">
<path d="M8.51714 0.166626H1.74631C0.875156 0.166626 0.166504 0.875278 0.166504 1.74643V5.80893C0.166504 6.68025 0.875156 7.38891 1.74631 7.38891H8.51714C9.38846 7.38891 10.0971 6.68025 10.0971 5.80893V1.74643C10.0971 0.875278 9.38846 0.166626 8.51714 0.166626ZM8.51714 9.19435H1.74631C0.875156 9.19435 0.166504 9.903 0.166504 10.7743V20.2535C0.166504 21.1246 0.875156 21.8333 1.74631 21.8333H8.51714C9.38846 21.8333 10.0971 21.1246 10.0971 20.2535V10.7743C10.0971 9.903 9.38846 9.19435 8.51714 9.19435ZM20.2534 14.611H13.4825C12.6112 14.611 11.9026 15.3197 11.9026 16.191V20.2535C11.9026 21.1246 12.6112 21.8333 13.4825 21.8333H20.2534C21.1245 21.8333 21.8332 21.1246 21.8332 20.2535V16.191C21.8332 15.3197 21.1245 14.611 20.2534 14.611ZM20.2534 0.166626H13.4825C12.6112 0.166626 11.9026 0.875278 11.9026 1.74643V11.2256C11.9026 12.0969 12.6112 12.8056 13.4825 12.8056H20.2534C21.1245 12.8056 21.8332 12.0969 21.8332 11.2256V1.74643C21.8332 0.875278 21.1245 0.166626 20.2534 0.166626Z" fill="#333F4E"/>
</svg>
